<svg xmlns="http://www.w3.org/2000/svg" width="1036.025" height="266.95" viewBox="0 0 1036.025 266.95">
  <g id="Group_233" data-name="Group 233" transform="translate(-196.48 -306.516)">
    <g id="Group_3" data-name="Group 3" transform="translate(196.48 306.516)">
      <path id="Icon_awesome-leaf" data-name="Icon awesome-leaf" d="M247.745,5.067c-2.54-6.516-9.8-6.777-12.837-.626-14.062,28.1-39.238,45.615-68,45.615H130.621c-48.084,0-87.095,44.833-87.095,100.093,0,3.649.363,7.142.68,10.687,28.941-23.824,70.719-44.051,129.962-44.051,3.992,0,7.258,3.753,7.258,8.341s-3.266,8.341-7.258,8.341c-114.04,0-162.4,80.335-173.1,110.519-2.994,8.5.544,18.194,7.938,21.687,7.439,3.545,15.877-.573,18.961-9.019.68-1.877,9.481-24.971,32.615-47.231,14.7,22.886,42.64,44.729,79.338,40.246,71.218-5.943,121.343-79.344,121.343-169.219,0-26.17-4.9-53.279-13.518-75.382Z" transform="translate(-0.004 0.002)" fill="#30de8d"/>
      <text id="PLANTIFY" transform="translate(336.025 184.492)" fill="#30de8d" font-size="149" font-family="Poppins-Bold, Poppins" font-weight="700"><tspan x="0" y="0">PLANTIFY</tspan></text>
    </g>
  </g>
</svg>
